<mxfile host="app.diagrams.net" modified="2022-11-17T05:02:42.376Z" agent="5.0 (Windows NT 10.0; Win64; x64) AppleWebKit/537.36 (KHTML, like Gecko) Chrome/107.0.0.0 Safari/537.36" etag="OHnXngINIsDuJVDPAXve" version="20.5.3" type="github">
  <diagram id="prtHgNgQTEPvFCAcTncT" name="Page-1">
    <mxGraphModel dx="1673" dy="2741" grid="1" gridSize="10" guides="1" tooltips="1" connect="1" arrows="1" fold="1" page="1" pageScale="1" pageWidth="1200" pageHeight="1920" math="0" shadow="0">
      <root>
        <mxCell id="0" />
        <mxCell id="1" parent="0" />
        <mxCell id="Ra66haGY5ytETqGSWiif-25" style="edgeStyle=orthogonalEdgeStyle;rounded=0;orthogonalLoop=1;jettySize=auto;html=1;entryX=0.491;entryY=-0.008;entryDx=0;entryDy=0;entryPerimeter=0;" edge="1" parent="1" source="Ra66haGY5ytETqGSWiif-5" target="Ra66haGY5ytETqGSWiif-14">
          <mxGeometry relative="1" as="geometry" />
        </mxCell>
        <mxCell id="Ra66haGY5ytETqGSWiif-5" value="nginx" style="rounded=0;whiteSpace=wrap;html=1;fillColor=none;" vertex="1" parent="1">
          <mxGeometry x="393" y="-10" width="120" height="60" as="geometry" />
        </mxCell>
        <mxCell id="Ra66haGY5ytETqGSWiif-46" style="edgeStyle=orthogonalEdgeStyle;rounded=0;orthogonalLoop=1;jettySize=auto;html=1;entryX=0.183;entryY=0;entryDx=0;entryDy=0;entryPerimeter=0;" edge="1" parent="1" source="Ra66haGY5ytETqGSWiif-7" target="Ra66haGY5ytETqGSWiif-41">
          <mxGeometry relative="1" as="geometry" />
        </mxCell>
        <mxCell id="Ra66haGY5ytETqGSWiif-59" style="edgeStyle=orthogonalEdgeStyle;rounded=0;orthogonalLoop=1;jettySize=auto;html=1;entryX=0.27;entryY=-0.005;entryDx=0;entryDy=0;entryPerimeter=0;fillColor=#f8cecc;strokeColor=#b85450;" edge="1" parent="1" source="Ra66haGY5ytETqGSWiif-7" target="Ra66haGY5ytETqGSWiif-41">
          <mxGeometry relative="1" as="geometry">
            <Array as="points">
              <mxPoint x="374" y="670" />
              <mxPoint x="374" y="670" />
            </Array>
          </mxGeometry>
        </mxCell>
        <mxCell id="Ra66haGY5ytETqGSWiif-7" value="" style="rounded=0;whiteSpace=wrap;html=1;fillColor=none;" vertex="1" parent="1">
          <mxGeometry x="80" y="470" width="400" height="160" as="geometry" />
        </mxCell>
        <mxCell id="Ra66haGY5ytETqGSWiif-8" value="pinlor-goods" style="rounded=1;whiteSpace=wrap;html=1;fillColor=none;" vertex="1" parent="1">
          <mxGeometry x="320" y="520" width="120" height="60" as="geometry" />
        </mxCell>
        <mxCell id="Ra66haGY5ytETqGSWiif-9" value="pinlor-deal" style="rounded=0;whiteSpace=wrap;html=1;fillColor=none;" vertex="1" parent="1">
          <mxGeometry x="150" y="520" width="120" height="60" as="geometry" />
        </mxCell>
        <mxCell id="Ra66haGY5ytETqGSWiif-38" style="edgeStyle=orthogonalEdgeStyle;rounded=0;orthogonalLoop=1;jettySize=auto;html=1;" edge="1" parent="1" source="Ra66haGY5ytETqGSWiif-14" target="Ra66haGY5ytETqGSWiif-7">
          <mxGeometry relative="1" as="geometry">
            <Array as="points">
              <mxPoint x="280" y="300" />
              <mxPoint x="280" y="300" />
            </Array>
          </mxGeometry>
        </mxCell>
        <mxCell id="Ra66haGY5ytETqGSWiif-39" style="edgeStyle=orthogonalEdgeStyle;rounded=0;orthogonalLoop=1;jettySize=auto;html=1;entryX=0.538;entryY=0.006;entryDx=0;entryDy=0;entryPerimeter=0;fillColor=#f8cecc;strokeColor=#b85450;" edge="1" parent="1" source="Ra66haGY5ytETqGSWiif-14" target="Ra66haGY5ytETqGSWiif-35">
          <mxGeometry relative="1" as="geometry">
            <Array as="points">
              <mxPoint x="786" y="320" />
              <mxPoint x="786" y="320" />
            </Array>
          </mxGeometry>
        </mxCell>
        <mxCell id="Ra66haGY5ytETqGSWiif-50" style="edgeStyle=orthogonalEdgeStyle;rounded=0;orthogonalLoop=1;jettySize=auto;html=1;" edge="1" parent="1" source="Ra66haGY5ytETqGSWiif-14" target="Ra66haGY5ytETqGSWiif-41">
          <mxGeometry relative="1" as="geometry">
            <Array as="points">
              <mxPoint x="130" y="400" />
              <mxPoint x="130" y="400" />
            </Array>
          </mxGeometry>
        </mxCell>
        <mxCell id="Ra66haGY5ytETqGSWiif-56" style="edgeStyle=orthogonalEdgeStyle;rounded=0;orthogonalLoop=1;jettySize=auto;html=1;entryX=0.339;entryY=-0.01;entryDx=0;entryDy=0;entryPerimeter=0;fillColor=#f8cecc;strokeColor=#b85450;" edge="1" parent="1" source="Ra66haGY5ytETqGSWiif-14" target="Ra66haGY5ytETqGSWiif-41">
          <mxGeometry relative="1" as="geometry">
            <Array as="points">
              <mxPoint x="450" y="400" />
              <mxPoint x="450" y="400" />
            </Array>
          </mxGeometry>
        </mxCell>
        <mxCell id="Ra66haGY5ytETqGSWiif-14" value="" style="rounded=0;whiteSpace=wrap;html=1;fillColor=none;" vertex="1" parent="1">
          <mxGeometry x="80" y="130" width="760" height="140" as="geometry" />
        </mxCell>
        <mxCell id="Ra66haGY5ytETqGSWiif-15" value="mobile" style="rounded=0;whiteSpace=wrap;html=1;fillColor=none;" vertex="1" parent="1">
          <mxGeometry x="110" y="165" width="120" height="60" as="geometry" />
        </mxCell>
        <mxCell id="Ra66haGY5ytETqGSWiif-16" value="admin" style="rounded=0;whiteSpace=wrap;html=1;fillColor=none;" vertex="1" parent="1">
          <mxGeometry x="260" y="165" width="120" height="60" as="geometry" />
        </mxCell>
        <mxCell id="Ra66haGY5ytETqGSWiif-17" value="new_admin" style="rounded=0;whiteSpace=wrap;html=1;fillColor=none;" vertex="1" parent="1">
          <mxGeometry x="420" y="165" width="120" height="60" as="geometry" />
        </mxCell>
        <mxCell id="Ra66haGY5ytETqGSWiif-18" value="task" style="rounded=0;whiteSpace=wrap;html=1;fillColor=none;" vertex="1" parent="1">
          <mxGeometry x="610" y="165" width="120" height="60" as="geometry" />
        </mxCell>
        <mxCell id="Ra66haGY5ytETqGSWiif-19" value="nacos" style="rounded=0;whiteSpace=wrap;html=1;fillColor=#f8cecc;strokeColor=#b85450;" vertex="1" parent="1">
          <mxGeometry x="970" y="260" width="120" height="60" as="geometry" />
        </mxCell>
        <mxCell id="Ra66haGY5ytETqGSWiif-20" value="zookeeper" style="rounded=0;whiteSpace=wrap;html=1;" vertex="1" parent="1">
          <mxGeometry x="980" y="670" width="120" height="60" as="geometry" />
        </mxCell>
        <mxCell id="Ra66haGY5ytETqGSWiif-21" value="" style="endArrow=none;dashed=1;html=1;dashPattern=1 3;strokeWidth=2;rounded=0;entryX=0;entryY=0.5;entryDx=0;entryDy=0;exitX=1;exitY=0.5;exitDx=0;exitDy=0;" edge="1" parent="1" source="Ra66haGY5ytETqGSWiif-18" target="Ra66haGY5ytETqGSWiif-19">
          <mxGeometry width="50" height="50" relative="1" as="geometry">
            <mxPoint x="630" y="370" as="sourcePoint" />
            <mxPoint x="680" y="320" as="targetPoint" />
          </mxGeometry>
        </mxCell>
        <mxCell id="Ra66haGY5ytETqGSWiif-22" value="" style="endArrow=none;dashed=1;html=1;dashPattern=1 3;strokeWidth=2;rounded=0;entryX=0;entryY=0.5;entryDx=0;entryDy=0;exitX=0.5;exitY=1;exitDx=0;exitDy=0;" edge="1" parent="1" source="Ra66haGY5ytETqGSWiif-17" target="Ra66haGY5ytETqGSWiif-19">
          <mxGeometry width="50" height="50" relative="1" as="geometry">
            <mxPoint x="630" y="370" as="sourcePoint" />
            <mxPoint x="680" y="320" as="targetPoint" />
          </mxGeometry>
        </mxCell>
        <mxCell id="Ra66haGY5ytETqGSWiif-23" value="" style="endArrow=none;dashed=1;html=1;dashPattern=1 3;strokeWidth=2;rounded=0;entryX=0;entryY=0.5;entryDx=0;entryDy=0;exitX=0.5;exitY=1;exitDx=0;exitDy=0;" edge="1" parent="1" source="Ra66haGY5ytETqGSWiif-16" target="Ra66haGY5ytETqGSWiif-19">
          <mxGeometry width="50" height="50" relative="1" as="geometry">
            <mxPoint x="630" y="370" as="sourcePoint" />
            <mxPoint x="680" y="320" as="targetPoint" />
          </mxGeometry>
        </mxCell>
        <mxCell id="Ra66haGY5ytETqGSWiif-24" value="" style="endArrow=none;dashed=1;html=1;dashPattern=1 3;strokeWidth=2;rounded=0;entryX=0;entryY=0.5;entryDx=0;entryDy=0;exitX=0.5;exitY=1;exitDx=0;exitDy=0;" edge="1" parent="1" source="Ra66haGY5ytETqGSWiif-15" target="Ra66haGY5ytETqGSWiif-19">
          <mxGeometry width="50" height="50" relative="1" as="geometry">
            <mxPoint x="630" y="370" as="sourcePoint" />
            <mxPoint x="680" y="320" as="targetPoint" />
          </mxGeometry>
        </mxCell>
        <mxCell id="Ra66haGY5ytETqGSWiif-26" value="" style="endArrow=none;dashed=1;html=1;dashPattern=1 3;strokeWidth=2;rounded=0;entryX=0;entryY=0.5;entryDx=0;entryDy=0;exitX=0.5;exitY=0;exitDx=0;exitDy=0;" edge="1" parent="1" source="Ra66haGY5ytETqGSWiif-9" target="Ra66haGY5ytETqGSWiif-19">
          <mxGeometry width="50" height="50" relative="1" as="geometry">
            <mxPoint x="630" y="330" as="sourcePoint" />
            <mxPoint x="680" y="280" as="targetPoint" />
          </mxGeometry>
        </mxCell>
        <mxCell id="Ra66haGY5ytETqGSWiif-27" value="" style="endArrow=none;dashed=1;html=1;dashPattern=1 3;strokeWidth=2;rounded=0;exitX=0.583;exitY=0;exitDx=0;exitDy=0;exitPerimeter=0;" edge="1" parent="1" source="Ra66haGY5ytETqGSWiif-8">
          <mxGeometry width="50" height="50" relative="1" as="geometry">
            <mxPoint x="630" y="330" as="sourcePoint" />
            <mxPoint x="930" y="310" as="targetPoint" />
          </mxGeometry>
        </mxCell>
        <mxCell id="Ra66haGY5ytETqGSWiif-29" value="" style="endArrow=none;dashed=1;html=1;dashPattern=1 3;strokeWidth=2;rounded=0;entryX=0;entryY=0.5;entryDx=0;entryDy=0;exitX=0.5;exitY=1;exitDx=0;exitDy=0;" edge="1" parent="1" source="Ra66haGY5ytETqGSWiif-8" target="Ra66haGY5ytETqGSWiif-20">
          <mxGeometry width="50" height="50" relative="1" as="geometry">
            <mxPoint x="630" y="610" as="sourcePoint" />
            <mxPoint x="680" y="560" as="targetPoint" />
          </mxGeometry>
        </mxCell>
        <mxCell id="Ra66haGY5ytETqGSWiif-30" value="" style="endArrow=none;dashed=1;html=1;dashPattern=1 3;strokeWidth=2;rounded=0;exitX=0.5;exitY=1;exitDx=0;exitDy=0;" edge="1" parent="1" source="Ra66haGY5ytETqGSWiif-9">
          <mxGeometry width="50" height="50" relative="1" as="geometry">
            <mxPoint x="630" y="610" as="sourcePoint" />
            <mxPoint x="940" y="700" as="targetPoint" />
          </mxGeometry>
        </mxCell>
        <mxCell id="Ra66haGY5ytETqGSWiif-33" value="dubbo" style="text;html=1;align=center;verticalAlign=middle;resizable=0;points=[];autosize=1;" vertex="1" parent="1">
          <mxGeometry x="270" y="370" width="60" height="30" as="geometry" />
        </mxCell>
        <mxCell id="Ra66haGY5ytETqGSWiif-48" style="edgeStyle=orthogonalEdgeStyle;rounded=0;orthogonalLoop=1;jettySize=auto;html=1;fillColor=#f8cecc;strokeColor=#b85450;" edge="1" parent="1" source="Ra66haGY5ytETqGSWiif-35" target="Ra66haGY5ytETqGSWiif-41">
          <mxGeometry relative="1" as="geometry">
            <Array as="points">
              <mxPoint x="770" y="740" />
              <mxPoint x="770" y="740" />
            </Array>
          </mxGeometry>
        </mxCell>
        <mxCell id="Ra66haGY5ytETqGSWiif-35" value="" style="rounded=0;whiteSpace=wrap;html=1;fillColor=#f8cecc;strokeColor=#b85450;" vertex="1" parent="1">
          <mxGeometry x="560" y="460" width="420" height="160" as="geometry" />
        </mxCell>
        <mxCell id="Ra66haGY5ytETqGSWiif-36" value="new_goods" style="rounded=0;whiteSpace=wrap;html=1;fillColor=none;" vertex="1" parent="1">
          <mxGeometry x="600" y="510" width="120" height="60" as="geometry" />
        </mxCell>
        <mxCell id="Ra66haGY5ytETqGSWiif-37" value="new_order" style="rounded=0;whiteSpace=wrap;html=1;fillColor=none;" vertex="1" parent="1">
          <mxGeometry x="780" y="510" width="120" height="60" as="geometry" />
        </mxCell>
        <mxCell id="Ra66haGY5ytETqGSWiif-40" value="feign" style="text;html=1;align=center;verticalAlign=middle;resizable=0;points=[];autosize=1;fillColor=#f8cecc;strokeColor=#b85450;" vertex="1" parent="1">
          <mxGeometry x="795" y="290" width="50" height="30" as="geometry" />
        </mxCell>
        <mxCell id="Ra66haGY5ytETqGSWiif-41" value="" style="rounded=0;whiteSpace=wrap;html=1;fillColor=none;" vertex="1" parent="1">
          <mxGeometry x="80" y="780" width="1090" height="210" as="geometry" />
        </mxCell>
        <mxCell id="Ra66haGY5ytETqGSWiif-42" value="RN服务" style="text;html=1;align=center;verticalAlign=middle;resizable=0;points=[];autosize=1;strokeColor=none;fillColor=none;" vertex="1" parent="1">
          <mxGeometry x="540" y="745" width="60" height="30" as="geometry" />
        </mxCell>
        <mxCell id="Ra66haGY5ytETqGSWiif-43" value="订单" style="rounded=0;whiteSpace=wrap;html=1;fillColor=none;" vertex="1" parent="1">
          <mxGeometry x="110" y="870" width="120" height="60" as="geometry" />
        </mxCell>
        <mxCell id="Ra66haGY5ytETqGSWiif-44" value="支付" style="rounded=1;whiteSpace=wrap;html=1;fillColor=none;" vertex="1" parent="1">
          <mxGeometry x="290" y="870" width="120" height="60" as="geometry" />
        </mxCell>
        <mxCell id="Ra66haGY5ytETqGSWiif-45" value="处方" style="rounded=1;whiteSpace=wrap;html=1;fillColor=none;" vertex="1" parent="1">
          <mxGeometry x="480" y="870" width="120" height="60" as="geometry" />
        </mxCell>
        <mxCell id="Ra66haGY5ytETqGSWiif-47" value="httpclient" style="text;html=1;align=center;verticalAlign=middle;resizable=0;points=[];autosize=1;" vertex="1" parent="1">
          <mxGeometry x="285" y="700" width="70" height="30" as="geometry" />
        </mxCell>
        <mxCell id="Ra66haGY5ytETqGSWiif-49" value="feign" style="text;html=1;align=center;verticalAlign=middle;resizable=0;points=[];autosize=1;fillColor=#f8cecc;strokeColor=#b85450;" vertex="1" parent="1">
          <mxGeometry x="780" y="715" width="50" height="30" as="geometry" />
        </mxCell>
        <mxCell id="Ra66haGY5ytETqGSWiif-51" value="httpclient" style="text;html=1;align=center;verticalAlign=middle;resizable=0;points=[];autosize=1;" vertex="1" parent="1">
          <mxGeometry x="135" y="700" width="70" height="30" as="geometry" />
        </mxCell>
        <mxCell id="Ra66haGY5ytETqGSWiif-52" value="重构后" style="text;html=1;align=center;verticalAlign=middle;resizable=0;points=[];autosize=1;strokeColor=none;fillColor=none;" vertex="1" parent="1">
          <mxGeometry x="790" y="425" width="60" height="30" as="geometry" />
        </mxCell>
        <mxCell id="Ra66haGY5ytETqGSWiif-53" value="" style="endArrow=none;dashed=1;html=1;dashPattern=1 3;strokeWidth=2;rounded=0;exitX=0.5;exitY=0;exitDx=0;exitDy=0;" edge="1" parent="1" source="Ra66haGY5ytETqGSWiif-36">
          <mxGeometry width="50" height="50" relative="1" as="geometry">
            <mxPoint x="630" y="500" as="sourcePoint" />
            <mxPoint x="960" y="290" as="targetPoint" />
          </mxGeometry>
        </mxCell>
        <mxCell id="Ra66haGY5ytETqGSWiif-54" value="" style="endArrow=none;dashed=1;html=1;dashPattern=1 3;strokeWidth=2;rounded=0;entryX=0;entryY=0.5;entryDx=0;entryDy=0;exitX=0.5;exitY=0;exitDx=0;exitDy=0;" edge="1" parent="1" source="Ra66haGY5ytETqGSWiif-37" target="Ra66haGY5ytETqGSWiif-19">
          <mxGeometry width="50" height="50" relative="1" as="geometry">
            <mxPoint x="630" y="500" as="sourcePoint" />
            <mxPoint x="680" y="450" as="targetPoint" />
          </mxGeometry>
        </mxCell>
        <mxCell id="Ra66haGY5ytETqGSWiif-55" value="重构前" style="text;html=1;align=center;verticalAlign=middle;resizable=0;points=[];autosize=1;strokeColor=none;fillColor=none;" vertex="1" parent="1">
          <mxGeometry x="180" y="435" width="60" height="30" as="geometry" />
        </mxCell>
        <mxCell id="Ra66haGY5ytETqGSWiif-57" value="feign" style="text;html=1;align=center;verticalAlign=middle;resizable=0;points=[];autosize=1;fillColor=#f8cecc;strokeColor=#b85450;" vertex="1" parent="1">
          <mxGeometry x="460" y="700" width="50" height="30" as="geometry" />
        </mxCell>
        <mxCell id="Ra66haGY5ytETqGSWiif-58" value="代表重构后" style="rounded=0;whiteSpace=wrap;html=1;fillColor=#f8cecc;strokeColor=#b85450;" vertex="1" parent="1">
          <mxGeometry x="960" y="30" width="120" height="60" as="geometry" />
        </mxCell>
        <mxCell id="Ra66haGY5ytETqGSWiif-60" value="feign" style="text;html=1;align=center;verticalAlign=middle;resizable=0;points=[];autosize=1;fillColor=#f8cecc;strokeColor=#b85450;" vertex="1" parent="1">
          <mxGeometry x="380" y="700" width="50" height="30" as="geometry" />
        </mxCell>
        <mxCell id="Ra66haGY5ytETqGSWiif-61" value="..............." style="rounded=0;whiteSpace=wrap;html=1;fillColor=none;" vertex="1" parent="1">
          <mxGeometry x="700" y="870" width="120" height="60" as="geometry" />
        </mxCell>
      </root>
    </mxGraphModel>
  </diagram>
</mxfile>
